<?xml version="1.0" encoding="UTF-8"?>
<svg version="1.1" xmlns="http://www.w3.org/2000/svg" width="512" height="512">
<path d="M0 0 C0.99 -0.03287109 0.99 -0.03287109 2 -0.06640625 C5.1420464 0.92162006 6.20132574 2.86994963 8 5.5625 C8.49219131 8.50472736 8.49219131 8.50472736 8.48101807 11.82038879 C8.48652805 13.07835927 8.49203804 14.33632975 8.497715 15.63242054 C8.48352944 17.02423777 8.46897787 18.41605131 8.45410156 19.80786133 C8.45287572 21.30030367 8.45341105 22.79274833 8.45556259 24.28518963 C8.45646468 28.27758182 8.43330238 32.26949328 8.40512085 36.26177216 C8.38232033 40.00961299 8.38126729 43.75733762 8.37841797 47.50524902 C8.35743881 58.46189622 8.30159406 69.4184542 8.25 80.375 C8.1675 104.856875 8.085 129.33875 8 154.5625 C66.08 154.5625 124.16 154.5625 184 154.5625 C183.8416119 105.7514989 183.8416119 105.7514989 183.63964844 56.94067383 C183.62158203 47.50524902 183.62158203 47.50524902 183.6182251 43.08964539 C183.61449487 40.00224842 183.59949118 36.91512591 183.57769775 33.82780457 C183.55026836 29.88993249 183.54203383 25.95245972 183.5477109 22.01450098 C183.54652375 20.56916456 183.53858703 19.12381425 183.52313948 17.6785599 C183.50323813 15.72593712 183.51042897 13.77309426 183.51898193 11.82038879 C183.51529476 10.72622052 183.51160759 9.63205225 183.50780869 8.50472736 C184.1174624 4.86033178 185.44501076 3.18243577 188 0.5625 C190 -0.06640625 190 -0.06640625 192 0 C192.66 -0.00128906 193.32 -0.00257812 194 -0.00390625 C196.92231421 0.82370227 198.09787284 2.21554869 200 4.5625 C200.49219131 7.39729691 200.49219131 7.39729691 200.48101807 10.73809814 C200.48926605 12.63953079 200.48926605 12.63953079 200.49768066 14.57937622 C200.48352496 15.98163221 200.46898573 17.38388437 200.45410156 18.78613281 C200.45297312 20.26453623 200.45360688 21.74294188 200.45587158 23.22134399 C200.45701981 27.23357216 200.43349327 31.24532254 200.40557575 35.25743961 C200.38058005 39.45079696 200.37822155 43.6441651 200.37347412 47.83758545 C200.36103893 55.77781781 200.32821005 63.71783003 200.28807616 71.65796542 C200.24337529 80.69775835 200.22137566 89.73756176 200.20129442 98.77743769 C200.15947784 117.3725833 200.0891153 135.96752395 200 154.5625 C200.75906521 154.55881283 201.51813042 154.55512566 202.3001976 154.55132675 C220.76114465 154.46302901 239.22204961 154.39681638 257.68316269 154.35525131 C266.61079232 154.334617 275.53828109 154.30647989 284.46582031 154.26074219 C292.24613737 154.22090092 300.02635242 154.19507351 307.80676866 154.18614602 C311.92733526 154.18092664 316.04761003 154.16864145 320.16808319 154.13957977 C324.04554951 154.11245329 327.92260345 154.10404927 331.80015564 154.11006927 C333.22399892 154.10896778 334.64785583 154.10099704 336.07161713 154.0856781 C338.01442007 154.06579786 339.95744371 154.07294074 341.90032959 154.08148193 C342.98804531 154.07779476 344.07576103 154.07410759 345.19643784 154.07030869 C348.67213638 154.68049977 349.84163149 155.82901917 352 158.5625 C352.56640625 160.5625 352.56640625 160.5625 352.5625 162.5625 C352.58441406 163.2225 352.60632813 163.8825 352.62890625 164.5625 C351.64162095 167.70218991 349.68875858 168.76336492 347 170.5625 C344.08900738 171.05469131 344.08900738 171.05469131 340.81803894 171.04351807 C339.57686152 171.04902805 338.33568411 171.05453804 337.05689526 171.060215 C335.68400396 171.0460295 334.31111641 171.03147793 332.93823242 171.01660156 C331.4658147 171.0153757 329.99339463 171.01591109 328.52097797 171.01806259 C324.58245166 171.01896461 320.64441272 170.99580376 316.70600128 170.96762085 C313.00861598 170.94481889 309.31134844 170.94376722 305.6138916 170.94091797 C294.80503 170.91993952 283.99625882 170.86409476 273.1875 170.8125 C249.035625 170.73 224.88375 170.6475 200 170.5625 C200 227.3225 200 284.0825 200 342.5625 C248.15279918 342.40411351 248.15279918 342.40411351 296.30541992 342.20214844 C305.6138916 342.18408203 305.6138916 342.18408203 309.97016907 342.1807251 C313.01590098 342.17699507 316.06135464 342.16199218 319.10700989 342.14019775 C322.99185972 342.11276627 326.87630481 342.1045342 330.76124251 342.1102109 C332.18704162 342.10902384 333.61285485 342.10108833 335.03857076 342.08563948 C336.96495782 342.06573495 338.89156803 342.07292971 340.81803894 342.08148193 C341.89745852 342.07779476 342.97687811 342.07410759 344.08900738 342.07030869 C347.71189049 342.68286661 349.39212221 344.02487561 352 346.5625 C352.62890625 348.5625 352.62890625 348.5625 352.5625 350.5625 C352.56378906 351.2225 352.56507813 351.8825 352.56640625 352.5625 C351.73956722 355.48209714 350.34241137 356.66021186 348 358.5625 C345.19643784 359.05469131 345.19643784 359.05469131 341.90032959 359.04351807 C340.0241394 359.05176605 340.0241394 359.05176605 338.11004639 359.06018066 C336.72668073 359.04602501 335.34331895 359.03148578 333.95996094 359.01660156 C332.50126171 359.0154731 331.04256021 359.01610691 329.5838623 359.01837158 C325.62534874 359.01951974 321.66731952 358.99599433 317.70891857 358.96807575 C313.571616 358.94307891 309.43430246 358.94072146 305.29693604 358.93597412 C297.46295013 358.92353927 289.62918738 358.89071085 281.79529977 358.85057616 C272.87642395 358.80587424 263.9575375 358.7838754 255.03857756 358.76379442 C236.6922585 358.7219786 218.34614719 358.65161672 200 358.5625 C200.00368717 359.33187267 200.00737434 360.10124535 200.01117325 360.89393234 C200.09946954 379.60523598 200.16568291 398.3164981 200.20724869 417.02796555 C200.22788333 426.07666246 200.25602108 435.1252204 200.30175781 444.17382812 C200.34159806 452.05962059 200.36742625 459.94531243 200.37635398 467.83120275 C200.38157353 472.00765898 200.39385983 476.18382729 200.42292023 480.36019135 C200.45004508 484.29018586 200.45845105 488.21977352 200.45243073 492.14985275 C200.45353229 493.59304642 200.46150397 495.03625351 200.4768219 496.4793663 C200.49669965 498.44844499 200.48955984 500.41774137 200.48101807 502.38690186 C200.48470524 503.48936626 200.48839241 504.59183067 200.49219131 505.72770309 C199.88475924 509.22623408 198.75368464 510.39441617 196 512.5625 C194 513.12890625 194 513.12890625 192 513.125 C191.34 513.14691406 190.68 513.16882813 190 513.19140625 C186.8579536 512.20337994 185.79867426 510.25505037 184 507.5625 C183.50780869 504.62027264 183.50780869 504.62027264 183.51898193 501.30461121 C183.51071695 499.41765549 183.51071695 499.41765549 183.502285 497.49257946 C183.51647056 496.10076223 183.53102213 494.70894869 183.54589844 493.31713867 C183.54712428 491.82469633 183.54658895 490.33225167 183.54443741 488.83981037 C183.54353532 484.84741818 183.56669762 480.85550672 183.59487915 476.86322784 C183.61767967 473.11538701 183.61873271 469.36766238 183.62158203 465.61975098 C183.64256119 454.66310378 183.69840594 443.7065458 183.75 432.75 C183.8325 408.268125 183.915 383.78625 184 358.5625 C125.92 358.5625 67.84 358.5625 8 358.5625 C8.1583881 407.3735011 8.1583881 407.3735011 8.36035156 456.18432617 C8.37841797 465.61975098 8.37841797 465.61975098 8.3817749 470.03535461 C8.38550513 473.12275158 8.40050882 476.20987409 8.42230225 479.29719543 C8.44973164 483.23506751 8.45796617 487.17254028 8.4522891 491.11049902 C8.45347625 492.55583544 8.46141297 494.00118575 8.47686052 495.4464401 C8.49676187 497.39906288 8.48957103 499.35190574 8.48101807 501.30461121 C8.48470524 502.39877948 8.48839241 503.49294775 8.49219131 504.62027264 C7.8825376 508.26466822 6.55498924 509.94256423 4 512.5625 C2 513.19140625 2 513.19140625 0 513.125 C-0.66 513.12628906 -1.32 513.12757813 -2 513.12890625 C-4.92231421 512.30129773 -6.09787284 510.90945131 -8 508.5625 C-8.49219131 505.72770309 -8.49219131 505.72770309 -8.48101807 502.38690186 C-8.48651672 501.11928009 -8.49201538 499.85165833 -8.49768066 498.54562378 C-8.48352496 497.14336779 -8.46898573 495.74111563 -8.45410156 494.33886719 C-8.45297312 492.86046377 -8.45360688 491.38205812 -8.45587158 489.90365601 C-8.45701981 485.89142784 -8.43349327 481.87967746 -8.40557575 477.86756039 C-8.38058005 473.67420304 -8.37822155 469.4808349 -8.37347412 465.28741455 C-8.36103893 457.34718219 -8.32821005 449.40716997 -8.28807616 441.46703458 C-8.24337529 432.42724165 -8.22137566 423.38743824 -8.20129442 414.34756231 C-8.15947784 395.7524167 -8.0891153 377.15747605 -8 358.5625 C-8.75906521 358.56618717 -9.51813042 358.56987434 -10.3001976 358.57367325 C-28.76114465 358.66197099 -47.22204961 358.72818362 -65.68316269 358.76974869 C-74.61079232 358.790383 -83.53828109 358.81852011 -92.46582031 358.86425781 C-100.24613737 358.90409908 -108.02635242 358.92992649 -115.80676866 358.93885398 C-119.92733526 358.94407336 -124.04761003 358.95635855 -128.16808319 358.98542023 C-132.04554951 359.01254671 -135.92260345 359.02095073 -139.80015564 359.01493073 C-141.22399892 359.01603222 -142.64785583 359.02400296 -144.07161713 359.0393219 C-146.01442007 359.05920214 -147.95744371 359.05205926 -149.90032959 359.04351807 C-150.98804531 359.04720524 -152.07576103 359.05089241 -153.19643784 359.05469131 C-156.67213638 358.44450023 -157.84163149 357.29598083 -160 354.5625 C-160.56640625 352.5625 -160.56640625 352.5625 -160.5625 350.5625 C-160.58441406 349.9025 -160.60632813 349.2425 -160.62890625 348.5625 C-159.64162095 345.42281009 -157.68875858 344.36163508 -155 342.5625 C-152.08900738 342.07030869 -152.08900738 342.07030869 -148.81803894 342.08148193 C-146.95627282 342.07321695 -146.95627282 342.07321695 -145.05689526 342.064785 C-143.68400396 342.0789705 -142.31111641 342.09352207 -140.93823242 342.10839844 C-139.4658147 342.1096243 -137.99339463 342.10908891 -136.52097797 342.10693741 C-132.58245166 342.10603539 -128.64441272 342.12919624 -124.70600128 342.15737915 C-121.00861598 342.18018111 -117.31134844 342.18123278 -113.6138916 342.18408203 C-102.80503 342.20506048 -91.99625882 342.26090524 -81.1875 342.3125 C-57.035625 342.395 -32.88375 342.4775 -8 342.5625 C-8 285.8025 -8 229.0425 -8 170.5625 C-56.15279918 170.72088649 -56.15279918 170.72088649 -104.30541992 170.92285156 C-113.6138916 170.94091797 -113.6138916 170.94091797 -117.97016907 170.9442749 C-121.01590098 170.94800493 -124.06135464 170.96300782 -127.10700989 170.98480225 C-130.99185972 171.01223373 -134.87630481 171.0204658 -138.76124251 171.0147891 C-140.18704162 171.01597616 -141.61285485 171.02391167 -143.03857076 171.03936052 C-144.96495782 171.05926505 -146.89156803 171.05207029 -148.81803894 171.04351807 C-149.89745852 171.04720524 -150.97687811 171.05089241 -152.08900738 171.05469131 C-155.71189049 170.44213339 -157.39212221 169.10012439 -160 166.5625 C-160.62890625 164.5625 -160.62890625 164.5625 -160.5625 162.5625 C-160.56378906 161.9025 -160.56507813 161.2425 -160.56640625 160.5625 C-159.73956722 157.64290286 -158.34241137 156.46478814 -156 154.5625 C-153.19643784 154.07030869 -153.19643784 154.07030869 -149.90032959 154.08148193 C-148.64953613 154.07598328 -147.39874268 154.07048462 -146.11004639 154.06481934 C-144.72668073 154.07897499 -143.34331895 154.09351422 -141.95996094 154.10839844 C-140.50126171 154.1095269 -139.04256021 154.10889309 -137.5838623 154.10662842 C-133.62534874 154.10548026 -129.66731952 154.12900567 -125.70891857 154.15692425 C-121.571616 154.18192109 -117.43430246 154.18427854 -113.29693604 154.18902588 C-105.46295013 154.20146073 -97.62918738 154.23428915 -89.79529977 154.27442384 C-80.87642395 154.31912576 -71.9575375 154.3411246 -63.03857756 154.36120558 C-44.6922585 154.4030214 -26.34614719 154.47338328 -8 154.5625 C-8.00368717 153.79312733 -8.00737434 153.02375465 -8.01117325 152.23106766 C-8.09946954 133.51976402 -8.16568291 114.8085019 -8.20724869 96.09703445 C-8.22788333 87.04833754 -8.25602108 77.9997796 -8.30175781 68.95117188 C-8.34159806 61.06537941 -8.36742625 53.17968757 -8.37635398 45.29379725 C-8.38157353 41.11734102 -8.39385983 36.94117271 -8.42292023 32.76480865 C-8.45004508 28.83481414 -8.45845105 24.90522648 -8.45243073 20.97514725 C-8.45353229 19.53195358 -8.46150397 18.08874649 -8.4768219 16.6456337 C-8.49669965 14.67655501 -8.48955984 12.70725863 -8.48101807 10.73809814 C-8.48470524 9.63563374 -8.48839241 8.53316933 -8.49219131 7.39729691 C-7.67264684 2.67709547 -4.82826935 -0.00943021 0 0 Z M8 170.5625 C8 227.3225 8 284.0825 8 342.5625 C66.08 342.5625 124.16 342.5625 184 342.5625 C184 285.8025 184 229.0425 184 170.5625 C125.92 170.5625 67.84 170.5625 8 170.5625 Z " fill="#99E6FC" transform="translate(160,-0.5625)"/>
<path d="M0 0 C12.06013695 10.27491931 20.57534364 25.49274841 21.85595703 41.40576172 C22.75150118 58.64592329 19.28781649 74.78027068 7.77563477 88.20874023 C-2.52000045 99.53806656 -16.13610119 108.0894599 -31.69287109 109.53344727 C-50.99095939 110.42021796 -66.49186582 106.90470199 -81.5625 94.0625 C-90.33582957 85.72572455 -95.66328346 76.82156756 -99.3125 65.3125 C-99.68181641 64.19294922 -99.68181641 64.19294922 -100.05859375 63.05078125 C-104.06377613 48.54925883 -101.31318306 31.68345587 -94.625 18.4375 C-91.2314535 12.74454794 -86.98097948 7.98898716 -82.3125 3.3125 C-81.67441406 2.6628125 -81.03632812 2.013125 -80.37890625 1.34375 C-58.1086528 -19.76900587 -23.44274508 -17.36499635 0 0 Z M-59.83984375 31.33984375 C-64.95679428 38.19411436 -66.32781852 44.8515123 -65.3125 53.3125 C-64.02685761 59.37945705 -61.0060679 64.26835659 -56.3125 68.3125 C-49.40803327 72.78825984 -42.56925479 75.3420637 -34.3125 73.6875 C-25.61273283 71.12371793 -19.98584418 65.92171411 -15.5 58.1875 C-12.94911634 51.56106659 -13.32889573 43.87903032 -16 37.375 C-19.41650873 30.76816256 -24.80079572 26.67839088 -31.3125 23.3125 C-41.79632771 20.03759115 -52.54234159 23.21425623 -59.83984375 31.33984375 Z " fill="#FD4654" transform="translate(108.3125,392.6875)"/>
<path d="M0 0 C13.86915852 11.30908087 22.77417793 24.82095516 25.33789062 42.74707031 C26.70463544 61.73171748 21.67009762 78.08762143 9.33789062 92.74707031 C-0.9412067 103.93787887 -15.29324431 111.24770679 -30.52148438 112.05957031 C-48.98370372 112.6637884 -63.77634624 108.65470855 -78.03710938 96.30957031 C-90.22307313 84.74653122 -97.49822913 69.99107364 -98.01391602 53.10009766 C-98.18021755 36.22836913 -92.98319697 21.00835652 -81.95117188 8.05957031 C-60.657415 -13.45221138 -24.99860033 -18.84442081 0 0 Z M-58.41210938 37.30957031 C-62.59732355 43.04437328 -62.39590667 49.89829559 -61.66210938 56.74707031 C-59.03798139 65.17252161 -54.05598883 69.97701588 -46.78710938 74.55957031 C-38.97683904 77.52747304 -32.30295981 77.12383325 -24.66210938 73.74707031 C-18.22720579 70.12462459 -13.30924073 64.97538404 -11.05664062 57.82519531 C-9.61698039 50.24203446 -10.23756032 43.79296146 -14.04882812 37.04003906 C-18.42874438 30.81483121 -24.15102253 26.34335442 -31.66210938 24.74707031 C-43.2303049 23.0674775 -51.64728278 28.34090503 -58.41210938 37.30957031 Z " fill="#FD4654" transform="translate(479.662109375,390.2529296875)"/>
<path d="M0 0 C11.41244765 9.12708345 19.12248607 19.11051696 24 33 C24.2475 33.70253906 24.495 34.40507813 24.75 35.12890625 C29.25049813 51.09942393 25.65148803 68.44111836 17.9375 82.67578125 C9.75766781 96.71013042 -2.85732445 106.77847383 -18.63671875 110.96484375 C-35.37547259 114.63755314 -52.87141674 113.60196102 -67.7421875 104.28125 C-82.64989634 93.87476072 -92.7597282 81.02832618 -96.37890625 63.0859375 C-99.34232839 45.55761081 -95.37939032 28.96793173 -85.3125 14.375 C-76.22651702 2.49723454 -63.98496513 -6.08602896 -49.296875 -9.5625 C-31.87540292 -11.87435412 -14.77921359 -10.22687702 0 0 Z M-53 32 C-59.18792023 38.63969317 -61.58063468 45.05311034 -61.37109375 54.125 C-60.36453142 61.92320925 -56.1590001 67.78409917 -50.1015625 72.59375 C-44.17438955 76.55988804 -38.09022166 78.05300322 -31 77 C-24.79053902 75.27617949 -20.17799931 73.03817563 -16 68 C-15.278125 67.195625 -14.55625 66.39125 -13.8125 65.5625 C-9.39021534 59.31030445 -9.10065638 52.43832118 -10 45 C-12.64353164 36.57374289 -17.59678975 31.7759369 -24.875 27.1875 C-35.0516165 23.32038573 -44.61036557 25.11841969 -53 32 Z " fill="#FD4654" transform="translate(104,20)"/>
<path d="M0 0 C1.16789062 0.85851562 1.16789062 0.85851562 2.359375 1.734375 C14.30115885 11.37015921 21.28107499 25.85544647 23.58984375 40.82421875 C25.20121106 58.44062762 20.95552053 74.07684412 10 88 C9.56300781 88.61230469 9.12601562 89.22460938 8.67578125 89.85546875 C-0.168778 101.46229275 -14.94868679 107.98628524 -28.9375 110.375 C-46.29784724 112.35300417 -61.99491508 108.48179312 -76 98 C-76.77859375 97.42765625 -77.5571875 96.8553125 -78.359375 96.265625 C-90.30115885 86.62984079 -97.28107499 72.14455353 -99.58984375 57.17578125 C-101.32917097 38.16043985 -95.92662274 21.74671088 -84 7 C-73.41724485 -4.50133064 -58.29102953 -11.98038282 -42.640625 -12.96484375 C-26.60698237 -13.17830941 -12.9328912 -9.67933367 0 0 Z M-58 32 C-62.73368277 38.025755 -64.36341209 44.39037101 -64 52 C-62.73829144 59.43807238 -58.93338178 65.91003342 -52.99609375 70.57421875 C-46.66688243 74.52572993 -39.95794203 75.84100794 -32.58203125 74.58984375 C-25.19709552 72.46715138 -19.15195516 68.36265884 -15.0625 61.8125 C-11.81824574 55.26900412 -11.03788528 48.35621948 -13.0625 41.3125 C-16.01039646 33.92292996 -20.32243003 28.47459351 -27.51171875 24.91015625 C-38.76463501 20.7940974 -49.59727185 23.63388505 -58 32 Z " fill="#FD4654" transform="translate(294,207)"/>
<path d="M0 0 C4.15191364 0.81161739 6.20086917 3.03841855 8.97143555 6.03125 C9.77682266 6.86004417 9.77682266 6.86004417 10.59848022 7.70558167 C12.30801807 9.46843664 13.99613455 11.25002449 15.68237305 13.03515625 C17.37822885 14.8139772 19.07831276 16.58818444 20.78768921 18.35401917 C21.84911096 19.45209368 22.90241092 20.5580916 23.94644165 21.67271423 C25.89335136 23.69895275 27.63572083 25.39448422 30.18237305 26.62158203 C32.86840429 26.58730715 33.76239626 25.6046465 35.70581055 23.78125 C36.74946777 22.80841064 36.74946777 22.80841064 37.81420898 21.81591797 C42.70202198 16.98236672 47.46577076 12.02488055 52.16674805 7.00976562 C52.96854492 6.18412109 53.7703418 5.35847656 54.59643555 4.5078125 C55.66692139 3.38064819 55.66692139 3.38064819 56.7590332 2.23071289 C59.80277141 0.06802276 61.39412748 -0.00910104 65.05737305 0.59765625 C68.98754118 3.27395869 72.16475555 6.7780426 75.49487305 10.16015625 C76.43008789 11.05541016 77.36530273 11.95066406 78.32885742 12.87304688 C79.20735352 13.75283203 80.08584961 14.63261719 80.9909668 15.5390625 C81.79590576 16.34029541 82.60084473 17.14152832 83.43017578 17.96704102 C85.05737305 20.59765625 85.05737305 20.59765625 85.16162109 24.0402832 C83.83032257 28.32910715 81.68969127 30.63587595 78.45581055 33.57421875 C77.8999527 34.10735687 77.34409485 34.640495 76.77139282 35.18978882 C75.00552406 36.88270651 73.22178171 38.55466142 71.43237305 40.22265625 C69.06884897 42.42675633 66.7258205 44.64987542 64.39331055 46.88671875 C63.57000748 47.63533676 63.57000748 47.63533676 62.73007202 48.39907837 C60.46528725 50.57361476 59.10881328 51.89719347 58.8737793 55.09765625 C60.49621672 58.52458677 62.90678806 60.78750883 65.65893555 63.30859375 C66.8000943 64.39918136 67.94070279 65.49034498 69.08081055 66.58203125 C70.88204067 68.28390352 72.68894784 69.97874885 74.5065918 71.66308594 C76.26257937 73.2981351 77.9927168 74.95730606 79.72143555 76.62109375 C80.27030426 77.11612396 80.81917297 77.61115417 81.38467407 78.1211853 C84.21376537 80.8734013 85.04901469 82.18418488 85.12988281 86.18457031 C83.98685897 89.82205569 82.90514448 91.51008901 80.2331543 94.18359375 C79.45133789 94.96863281 78.66952148 95.75367188 77.86401367 96.5625 C77.04094727 97.35785156 76.21788086 98.15320313 75.36987305 98.97265625 C74.56614258 99.79121094 73.76241211 100.60976563 72.93432617 101.453125 C65.86322454 108.42593658 65.86322454 108.42593658 60.05737305 108.59765625 C58.06201172 107.515625 58.06201172 107.515625 56.2878418 105.78515625 C55.61027832 105.13675781 54.93271484 104.48835938 54.23461914 103.8203125 C53.15688232 102.72009766 53.15688232 102.72009766 52.05737305 101.59765625 C51.28603027 100.81261719 50.5146875 100.02757812 49.7199707 99.21875 C46.40862526 95.80936472 43.11160718 92.38845451 39.86010742 88.921875 C39.05508789 88.09300781 38.25006836 87.26414062 37.4206543 86.41015625 C36.70176025 85.65347656 35.98286621 84.89679688 35.2421875 84.1171875 C33.1684797 82.3794184 33.1684797 82.3794184 30.63012695 82.52734375 C27.1859374 83.96018936 25.02250693 86.22916136 22.5300293 88.91015625 C21.47998164 89.99617358 20.42984881 91.08210855 19.37963867 92.16796875 C17.74565146 93.88278317 16.11610028 95.60164876 14.48925781 97.32324219 C12.90934105 98.98781864 11.31430315 100.63676826 9.7175293 102.28515625 C9.23921158 102.80182861 8.76089386 103.31850098 8.26808167 103.85083008 C5.04413542 107.16712503 2.69508372 108.42203811 -1.94262695 108.59765625 C-3.85668945 107.5859375 -3.85668945 107.5859375 -5.56762695 105.91015625 C-6.23149414 105.26691406 -6.89536133 104.62367188 -7.5793457 103.9609375 C-8.35922852 103.18105469 -9.13911133 102.40117187 -9.94262695 101.59765625 C-10.98835759 100.6301615 -12.03670486 99.66549002 -13.0871582 98.703125 C-14.18616731 97.66940517 -15.28382451 96.63424617 -16.38012695 95.59765625 C-16.9126709 95.11208252 -17.44521484 94.62650879 -17.99389648 94.1262207 C-20.56562162 91.62489102 -21.90250706 89.73264744 -22.92871094 86.27978516 C-22.94262695 82.59765625 -22.94262695 82.59765625 -20.77709961 79.58740234 C-19.73975067 78.57824143 -18.68139188 77.59037868 -17.60668945 76.62109375 C-17.05274506 76.08795563 -16.49880066 75.5548175 -15.92807007 75.00552368 C-14.159197 73.30775765 -12.36598157 71.63911869 -10.56762695 69.97265625 C-8.78010295 68.29582975 -6.99885326 66.61342748 -5.22860718 64.91836548 C-4.12764872 63.86619667 -3.01616645 62.82490207 -1.89321899 61.79623413 C0.30186488 59.7150016 1.94217774 57.84097307 3.2409668 55.09765625 C2.95549674 51.21040446 0.45658722 49.37375406 -2.27856445 46.88671875 C-2.83250885 46.35549408 -3.38645325 45.82426941 -3.95718384 45.27694702 C-6.32680569 43.00533193 -8.72997341 40.7704367 -11.13110352 38.53222656 C-12.8801379 36.89208891 -14.6106253 35.23392921 -16.34106445 33.57421875 C-16.8858847 33.07918854 -17.43070496 32.58415833 -17.99203491 32.0741272 C-20.66867389 29.50281334 -21.94018894 27.60551039 -23.046875 24.0402832 C-22.91546698 19.70074091 -21.91954488 18.56837478 -18.8762207 15.5390625 C-17.99772461 14.65927734 -17.11922852 13.77949219 -16.21411133 12.87304688 C-15.27889648 11.97779297 -14.34368164 11.08253906 -13.38012695 10.16015625 C-12.47198242 9.23783203 -11.56383789 8.31550781 -10.62817383 7.36523438 C-3.93599175 0.79941158 -3.93599175 0.79941158 0 0 Z " fill="#00D0FB" transform="translate(224.942626953125,386.40234375)"/>
<path d="M0 0 C2.172509 1.81820602 3.98101922 3.53433966 5.87890625 5.6015625 C6.97586065 6.74223636 8.07286742 7.88285987 9.16992188 9.0234375 C10.87470244 10.8280065 12.57413975 12.63742638 14.27124023 14.44921875 C15.91963326 16.19990945 17.58571692 17.93225878 19.25390625 19.6640625 C19.75612198 20.21293121 20.25833771 20.76179993 20.77577209 21.32730103 C22.96962741 23.59686674 24.29307955 24.95344871 27.51367188 25.16552734 C30.84065112 23.60592415 33.06351847 21.33767543 35.52734375 18.6875 C36.5773914 17.60148267 37.62752424 16.5155477 38.67773438 15.4296875 C40.31172159 13.71487308 41.94127277 11.99600749 43.56811523 10.27441406 C45.148032 8.60983761 46.74306989 6.96088799 48.33984375 5.3125 C48.81816147 4.79582764 49.29647919 4.27915527 49.78929138 3.74682617 C53.01323763 0.43053122 55.36228932 -0.82438186 60 -1 C61.9140625 0.01171875 61.9140625 0.01171875 63.625 1.6875 C64.62080078 2.65236328 64.62080078 2.65236328 65.63671875 3.63671875 C66.41660156 4.41660156 67.19648438 5.19648438 68 6 C69.04573064 6.96749475 70.0940779 7.93216623 71.14453125 8.89453125 C72.24354036 9.92825108 73.34119756 10.96341008 74.4375 12 C74.97004395 12.48557373 75.50258789 12.97114746 76.05126953 13.47143555 C78.62299467 15.97276523 79.9598801 17.86500881 80.98608398 21.31787109 C81 25 81 25 78.83447266 28.01025391 C77.79712371 29.01941482 76.73876493 30.00727757 75.6640625 30.9765625 C75.1101181 31.50970062 74.55617371 32.04283875 73.98544312 32.59213257 C72.21657004 34.2898986 70.42335461 35.95853756 68.625 37.625 C66.83747599 39.3018265 65.05622631 40.98422877 63.28598022 42.67929077 C62.18502177 43.73145958 61.0735395 44.77275418 59.95059204 45.80142212 C57.75550816 47.88265465 56.11519531 49.75668318 54.81640625 52.5 C55.1018763 56.38725179 57.60078582 58.22390219 60.3359375 60.7109375 C61.1668541 61.50777451 61.1668541 61.50777451 62.01455688 62.32070923 C64.38417874 64.59232432 66.78734645 66.82721955 69.18847656 69.06542969 C70.93751095 70.70556734 72.66799834 72.36372704 74.3984375 74.0234375 C74.94325775 74.51846771 75.488078 75.01349792 76.04940796 75.52352905 C78.72604694 78.09484291 79.99756199 79.99214586 81.10424805 83.55737305 C80.97284002 87.89691534 79.97691793 89.02928147 76.93359375 92.05859375 C76.05509766 92.93837891 75.17660156 93.81816406 74.27148438 94.72460938 C73.33626953 95.61986328 72.40105469 96.51511719 71.4375 97.4375 C70.52935547 98.35982422 69.62121094 99.28214844 68.68554688 100.23242188 C61.9933648 106.79824467 61.9933648 106.79824467 58.05737305 107.59765625 C53.9054594 106.78603886 51.85650388 104.5592377 49.0859375 101.56640625 C48.54901276 101.0138768 48.01208801 100.46134735 47.45889282 99.89207458 C45.74935497 98.12921961 44.0612385 96.34763176 42.375 94.5625 C40.6791442 92.78367905 38.97906029 91.00947181 37.26968384 89.24363708 C36.20826209 88.14556257 35.15496212 87.03956465 34.1109314 85.92494202 C32.16402169 83.8987035 30.42165221 82.20317203 27.875 80.97607422 C25.18896876 81.0103491 24.29497678 81.99300975 22.3515625 83.81640625 C21.30790527 84.78924561 21.30790527 84.78924561 20.24316406 85.78173828 C15.35535107 90.61528953 10.59160229 95.5727757 5.890625 100.58789062 C5.08882812 101.41353516 4.28703125 102.23917969 3.4609375 103.08984375 C2.74728027 103.84128662 2.03362305 104.59272949 1.29833984 105.36694336 C-1.74539837 107.52963349 -3.33675443 107.60675729 -7 107 C-10.93016813 104.32369756 -14.1073825 100.81961365 -17.4375 97.4375 C-18.37271484 96.54224609 -19.30792969 95.64699219 -20.27148438 94.72460938 C-21.14998047 93.84482422 -22.02847656 92.96503906 -22.93359375 92.05859375 C-23.73853271 91.25736084 -24.54347168 90.45612793 -25.37280273 89.63061523 C-27 87 -27 87 -27.10424805 83.55737305 C-25.77294953 79.2685491 -23.63231822 76.9617803 -20.3984375 74.0234375 C-19.84257965 73.49029938 -19.2867218 72.95716125 -18.71401978 72.40786743 C-16.94815101 70.71494974 -15.16440867 69.04299483 -13.375 67.375 C-11.01147592 65.17089992 -8.66844745 62.94778083 -6.3359375 60.7109375 C-5.78706879 60.21185883 -5.23820007 59.71278015 -4.67269897 59.19857788 C-2.40791421 57.02404149 -1.05144024 55.70046278 -0.81640625 52.5 C-2.43884367 49.07306948 -4.84941502 46.81014742 -7.6015625 44.2890625 C-8.74272125 43.19847489 -9.88332974 42.10731127 -11.0234375 41.015625 C-12.82466763 39.31375273 -14.6315748 37.6189074 -16.44921875 35.93457031 C-18.20520632 34.29952115 -19.93534375 32.64035019 -21.6640625 30.9765625 C-22.48736557 30.23401718 -22.48736557 30.23401718 -23.32730103 29.47647095 C-26.15416805 26.72641878 -26.99071851 25.40950063 -27.08129883 21.41308594 C-25.91170768 17.72130806 -24.79665312 16.08156511 -22.03515625 13.4140625 C-20.83536133 12.23650391 -20.83536133 12.23650391 -19.61132812 11.03515625 C-18.77021484 10.23980469 -17.92910156 9.44445312 -17.0625 8.625 C-16.22525391 7.80644531 -15.38800781 6.98789062 -14.52539062 6.14453125 C-6.35021381 -1.78729758 -6.35021381 -1.78729758 0 0 Z " fill="#00D0FB" transform="translate(229,18)"/>
<path d="M0 0 C2.14241464 1.7543369 3.91217885 3.42266613 5.78125 5.43359375 C6.31721802 5.9861232 6.85318604 6.53865265 7.40539551 7.10792542 C9.11602657 8.87296725 10.80936258 10.65331238 12.5 12.4375 C14.19143464 14.2172357 15.88635505 15.99275239 17.59460449 17.75636292 C18.6564892 18.85295541 19.70882325 19.95889895 20.75012207 21.07505798 C22.85294692 23.2493115 24.76001107 24.88679017 27.50439453 26.18139648 C31.38916725 25.89902649 33.2259229 23.39699186 35.7109375 20.6640625 C36.24216217 20.1101181 36.77338684 19.55617371 37.32070923 18.98544312 C39.59232432 16.61582126 41.82721955 14.21265355 44.06542969 11.81152344 C45.70556734 10.06248905 47.36372704 8.33200166 49.0234375 6.6015625 C49.51846771 6.05674225 50.01349792 5.511922 50.52352905 4.95059204 C53.09484291 2.27395306 54.99214586 1.00243801 58.55737305 -0.10424805 C62.89691534 0.02715998 64.02928147 1.02308207 67.05859375 4.06640625 C67.93837891 4.94490234 68.81816406 5.82339844 69.72460938 6.72851562 C70.61986328 7.66373047 71.51511719 8.59894531 72.4375 9.5625 C73.35982422 10.47064453 74.28214844 11.37878906 75.23242188 12.31445312 C81.805527 19.01405769 81.805527 19.01405769 82.58398438 22.96069336 C81.80547829 27.0123749 79.7232679 28.94956148 76.78515625 31.625 C76.25482285 32.13498535 75.72448944 32.6449707 75.17808533 33.17041016 C73.48657219 34.79541175 71.77704464 36.399341 70.0625 38 C68.35241658 39.60144169 66.64766224 41.20699148 64.95762634 42.82958984 C63.90783741 43.83728215 62.84650452 44.83312485 61.7724762 45.81494141 C59.34059812 48.14687719 58.03581752 49.88981751 56.98779297 53.11376953 C57.00227982 56.53904088 57.49088748 57.38892536 59.84765625 59.8046875 C60.49621582 60.48241211 61.14477539 61.16013672 61.81298828 61.85839844 C62.89555908 62.91849121 62.89555908 62.91849121 64 64 C64.74878418 64.73508789 65.49756836 65.47017578 66.26904297 66.22753906 C69.47081349 69.33160141 72.68390107 72.42132773 75.94335938 75.46484375 C76.72388672 76.22152344 77.50441406 76.97820312 78.30859375 77.7578125 C79.01814209 78.4295752 79.72769043 79.10133789 80.45874023 79.79345703 C82.54641372 82.78227264 82.57386456 84.42237586 82 88 C79.32369756 91.93016813 75.81961365 95.1073825 72.4375 98.4375 C71.54224609 99.37271484 70.64699219 100.30792969 69.72460938 101.27148438 C68.84482422 102.14998047 67.96503906 103.02847656 67.05859375 103.93359375 C66.25736084 104.73853271 65.45612793 105.54347168 64.63061523 106.37280273 C62 108 62 108 58.55737305 108.10424805 C54.2685491 106.77294953 51.9617803 104.63231822 49.0234375 101.3984375 C48.49029938 100.84257965 47.95716125 100.2867218 47.40786743 99.71401978 C45.71494974 97.94815101 44.04299483 96.16440867 42.375 94.375 C40.17089992 92.01147592 37.94778083 89.66844745 35.7109375 87.3359375 C35.21185883 86.78706879 34.71278015 86.23820007 34.19857788 85.67269897 C32.02581183 83.40975802 30.70284859 82.05108751 27.50439453 81.81860352 C24.07306504 83.43726246 21.76814091 85.83373659 19.21875 88.56640625 C18.11856695 89.70254888 17.01830411 90.83861425 15.91796875 91.97460938 C14.20275879 93.77078118 12.49194985 95.5709956 10.78369141 97.3737793 C9.12673542 99.1151283 7.45486028 100.84108135 5.78125 102.56640625 C5.27589722 103.11011368 4.77054443 103.65382111 4.24987793 104.21400452 C2.0782482 106.44525691 0.50675814 107.88036757 -2.55957031 108.60424805 C-5.91507195 107.77342907 -7.40144503 106.2136683 -9.828125 103.765625 C-10.70984375 102.88132812 -11.5915625 101.99703125 -12.5 101.0859375 C-13.4075 100.15007812 -14.315 99.21421875 -15.25 98.25 C-16.17296875 97.32960938 -17.0959375 96.40921875 -18.046875 95.4609375 C-25.92436149 87.46760562 -25.92436149 87.46760562 -26 84 C-24.04877567 79.72424358 -21.01879443 76.86214534 -17.640625 73.65625 C-16.59709262 72.64771829 -15.55414056 71.63858581 -14.51171875 70.62890625 C-12.87619856 69.05551314 -11.23653878 67.48728948 -9.58642578 65.92919922 C-7.98681017 64.41409877 -6.40658721 62.8808345 -4.828125 61.34375 C-3.8784082 60.43818359 -2.92869141 59.53261719 -1.95019531 58.59960938 C0.21992924 56.20889158 0.21992924 56.20889158 0.13378906 53.51367188 C-1.38603016 50.14415019 -3.65676517 47.92261846 -6.3125 45.4375 C-7.10587769 44.66684204 -7.10587769 44.66684204 -7.9152832 43.88061523 C-9.60088071 42.24375311 -11.29864881 40.62047201 -13 39 C-15.24074296 36.86577793 -17.4678296 34.71860635 -19.6875 32.5625 C-20.20417236 32.079021 -20.72084473 31.59554199 -21.25317383 31.09741211 C-24.20512342 28.22719808 -25.79833977 26.17892334 -26 22 C-25.05859375 20.25390625 -25.05859375 20.25390625 -23.4375 18.5625 C-22.79941406 17.89347656 -22.16132813 17.22445312 -21.50390625 16.53515625 C-20.67761719 15.69855469 -19.85132813 14.86195313 -19 14 C-17.86225104 12.79133352 -16.72562077 11.58161344 -15.58984375 10.37109375 C-14.35317388 9.07918476 -13.11487758 7.78883078 -11.875 6.5 C-11.27743896 5.86392822 -10.67987793 5.22785645 -10.06420898 4.57250977 C-9.48356689 3.98139404 -8.9029248 3.39027832 -8.3046875 2.78125 C-7.5310083 1.9778418 -7.5310083 1.9778418 -6.74169922 1.15820312 C-4.22277685 -0.51684141 -2.97615651 -0.57558002 0 0 Z " fill="#00C9FA" transform="translate(415,202)"/>
<path d="M0 0 C4.28882395 1.33129852 6.59559275 3.47192982 9.53393555 6.70581055 C10.06707367 7.2616684 10.60021179 7.81752625 11.14950562 8.39022827 C12.84242331 10.15609703 14.51437822 11.93983938 16.18237305 13.72924805 C18.38647312 16.09277212 20.60959222 18.4358006 22.84643555 20.76831055 C23.34551422 21.31717926 23.8445929 21.86604797 24.35879517 22.43154907 C26.53156122 24.69449002 27.85452446 26.05316054 31.05297852 26.28564453 C34.48430801 24.66698559 36.78923213 22.27051146 39.33862305 19.5378418 C40.4388061 18.40169917 41.53906893 17.26563379 42.6394043 16.12963867 C44.35461425 14.33346687 46.0654232 12.53325245 47.77368164 10.73046875 C49.43063762 8.98911974 51.10251276 7.2631667 52.77612305 5.5378418 C53.28147583 4.99413437 53.78682861 4.45042694 54.30749512 3.89024353 C56.47912484 1.65899114 58.0506149 0.22388048 61.11694336 -0.5 C64.47244499 0.33081898 65.95881808 1.89057975 68.38549805 4.33862305 C69.2672168 5.22291992 70.14893555 6.1072168 71.05737305 7.01831055 C72.41862305 8.42209961 72.41862305 8.42209961 73.80737305 9.85424805 C74.7303418 10.77463867 75.65331055 11.6950293 76.60424805 12.64331055 C83.09287592 19.22735942 83.09287592 19.22735942 84.57592773 22.02709961 C84.53599673 26.49727019 80.98761193 29.65122511 78.06787109 32.72558594 C77.16077393 33.584021 76.25367676 34.44245605 75.3190918 35.3269043 C74.32439483 36.28661447 73.33027025 37.24691819 72.33666992 38.20776367 C70.78451789 39.69772103 69.22820368 41.18244064 67.66162109 42.65722656 C66.13810303 44.09624978 64.63399797 45.55339688 63.1315918 47.0144043 C62.23013428 47.87171143 61.32867676 48.72901855 60.39990234 49.61230469 C58.33198295 51.92163796 58.33198295 51.92163796 58.45532227 54.59057617 C59.93369414 57.96260028 61.94866556 59.87643989 64.6159668 62.4128418 C65.12031754 62.90204605 65.62466827 63.39125031 66.14430237 63.89527893 C68.29307537 65.97893697 70.46473869 68.03813225 72.63476562 70.09960938 C74.22011963 71.61232621 75.79312035 73.13714109 77.3659668 74.6628418 C78.31270264 75.56317139 79.25943848 76.46350098 80.23486328 77.39111328 C82.70316286 80.27455838 83.73062573 82.42034496 84.55737305 86.10424805 C83.71362305 87.94799805 83.71362305 87.94799805 82.05737305 89.60424805 C81.08670898 90.59424805 81.08670898 90.59424805 80.09643555 91.60424805 C79.25854492 92.42924805 78.4206543 93.25424805 77.55737305 94.10424805 C76.41650794 95.30989629 75.27872808 96.51846818 74.14331055 97.72924805 C72.90778275 99.02230307 71.6707902 100.31396002 70.43237305 101.60424805 C69.83489258 102.24040039 69.23741211 102.87655273 68.62182617 103.53198242 C67.75074219 104.41853516 67.75074219 104.41853516 66.86206055 105.32299805 C66.34627441 105.85860352 65.83048828 106.39420898 65.29907227 106.94604492 C62.7801499 108.62108946 61.53352956 108.67982807 58.55737305 108.10424805 C56.41495841 106.34991115 54.6451942 104.68158192 52.77612305 102.6706543 C52.24015503 102.11812485 51.70418701 101.5655954 51.15197754 100.99632263 C49.44134648 99.2312808 47.74801046 97.45093567 46.05737305 95.66674805 C44.36593841 93.88701234 42.671018 92.11149566 40.96276855 90.34788513 C39.90088385 89.25129264 38.8485498 88.1453491 37.80725098 87.02919006 C35.70442613 84.85493655 33.79736198 83.21745788 31.05297852 81.92285156 C27.16820579 82.20522156 25.33145014 84.70725618 22.84643555 87.44018555 C22.31521088 87.99412994 21.78398621 88.54807434 21.23666382 89.11880493 C18.96504873 91.48842678 16.73015349 93.8915945 14.49194336 96.29272461 C12.85180571 98.041759 11.193646 99.77224639 9.53393555 101.50268555 C9.03890533 102.0475058 8.54387512 102.59232605 8.03384399 103.15365601 C5.46253014 105.83029499 3.56522718 107.10181004 0 108.20849609 C-4.33954229 108.07708807 -5.47190843 107.08116598 -8.5012207 104.0378418 C-9.82089844 102.72009766 -9.82089844 102.72009766 -11.16723633 101.37573242 C-12.51011719 99.97291016 -12.51011719 99.97291016 -13.88012695 98.54174805 C-14.80245117 97.63360352 -15.72477539 96.72545898 -16.67504883 95.78979492 C-23.24815396 89.09019036 -23.24815396 89.09019036 -24.02661133 85.14355469 C-23.24810524 81.09187314 -21.16589485 79.15468657 -18.2277832 76.47924805 C-17.6974498 75.9692627 -17.16711639 75.45927734 -16.62071228 74.93383789 C-14.92919915 73.30883629 -13.21967159 71.70490705 -11.50512695 70.10424805 C-9.79504353 68.50280635 -8.0902892 66.89725657 -6.4002533 65.2746582 C-5.35046436 64.26696589 -4.28913148 63.2711232 -3.21510315 62.28930664 C-0.78322507 59.95737085 0.52155553 58.21443054 1.56958008 54.99047852 C1.55509323 51.56520717 1.06648557 50.71532269 -1.2902832 48.29956055 C-1.93884277 47.62183594 -2.58740234 46.94411133 -3.25561523 46.24584961 C-3.9773291 45.53912109 -4.69904297 44.83239258 -5.44262695 44.10424805 C-6.19141113 43.36916016 -6.94019531 42.63407227 -7.71166992 41.87670898 C-10.91344044 38.77264664 -14.12652802 35.68292031 -17.38598633 32.6394043 C-18.16651367 31.88272461 -18.94704102 31.12604492 -19.7512207 30.34643555 C-20.46076904 29.67467285 -21.17031738 29.00291016 -21.90136719 28.31079102 C-23.98904067 25.3219754 -24.01649151 23.68187219 -23.44262695 20.10424805 C-20.76632451 16.17407991 -17.26224061 12.99686554 -13.88012695 9.66674805 C-12.98487305 8.7315332 -12.08961914 7.79631836 -11.16723633 6.83276367 C-10.28745117 5.95426758 -9.40766602 5.07577148 -8.5012207 4.1706543 C-7.69998779 3.36571533 -6.89875488 2.56077637 -6.07324219 1.73144531 C-3.44262695 0.10424805 -3.44262695 0.10424805 0 0 Z " fill="#01CFFB" transform="translate(38.442626953125,201.895751953125)"/>
<path d="M0 0 C13.02678163 11.26165671 21.236485 24.16670371 23.703125 41.4140625 C25.06986982 60.39870966 20.035332 76.75461362 7.703125 91.4140625 C-1.64949748 101.59622193 -15.66567872 109.80654955 -29.73681641 110.54150391 C-47.01332604 111.04410449 -47.01332604 111.04410449 -53.296875 109.4140625 C-50.93052542 107.04771292 -48.98118139 106.41601539 -45.859375 105.2265625 C-29.37934291 98.48832396 -19.02633268 88.21966834 -11.671875 72.04956055 C-5.42837253 57.08053825 -6.54418974 39.23484379 -12.515625 24.3828125 C-15.92761616 16.87643196 -20.45155043 11.17917678 -26.296875 5.4140625 C-26.93496094 4.76566406 -27.57304687 4.11726563 -28.23046875 3.44921875 C-35.02588738 -3.00713534 -43.43348672 -6.7848964 -52.296875 -9.5859375 C-40.6681982 -21.2146143 -10.0317175 -8.1799847 0 0 Z " fill="#FB2B3A" transform="translate(481.296875,391.5859375)"/>
<path d="M0 0 C12.76578973 12.63640673 19.52785 28.41383216 19.6875 46.2890625 C19.49854627 63.4963303 13.30458393 78.49229107 1.1328125 90.6640625 C-11.17434012 102.11891923 -25.72427983 107.68010233 -42.4375 107.5390625 C-43.36949219 107.54679687 -44.30148438 107.55453125 -45.26171875 107.5625 C-46.16019531 107.55992187 -47.05867188 107.55734375 -47.984375 107.5546875 C-48.79229492 107.55243164 -49.60021484 107.55017578 -50.43261719 107.54785156 C-52.90427651 107.26418343 -54.54525463 106.52388854 -56.6875 105.2890625 C-55.94886719 105.00933594 -55.21023437 104.72960937 -54.44921875 104.44140625 C-36.66487832 97.4135411 -25.12644743 87.39555187 -16.6875 70.2890625 C-16.22988281 69.37898438 -15.77226563 68.46890625 -15.30078125 67.53125 C-9.53557396 53.6542949 -11.35797707 35.33684033 -16.6875 21.6015625 C-23.37154771 6.14225916 -35.38566461 -4.42225596 -50.95703125 -10.61328125 C-52.85846183 -11.33589147 -54.7718933 -12.02679225 -56.6875 -12.7109375 C-43.55173597 -25.84670153 -10.90153936 -9.28782465 0 0 Z " fill="#FB2B3A" transform="translate(110.6875,394.7109375)"/>
<path d="M0 0 C16.2571484 6.61483462 28.7896365 18.1310297 35.875 34.30859375 C36.63166339 36.27741198 37.36365339 38.25601884 38.0625 40.24609375 C38.31 40.94863281 38.5575 41.65117188 38.8125 42.375 C43.31299813 58.34551768 39.71398803 75.68721211 32 89.921875 C23.82016781 103.95622417 11.20517555 114.02456758 -4.57421875 118.2109375 C-15.57943523 120.62563111 -25.0396258 121.10455256 -35.9375 118.24609375 C-33.61381587 115.92240962 -32.04923714 115.53543169 -28.9375 114.55859375 C-22.81827814 112.40924714 -18.00838496 109.23806702 -12.9375 105.24609375 C-11.94492188 104.47136719 -10.95234375 103.69664063 -9.9296875 102.8984375 C0.00935438 94.08824241 7.25107156 80.16064565 8.23950195 66.86523438 C8.74337644 46.61389628 5.82321632 30.71547134 -8.66015625 15.4609375 C-16.47918024 7.85650079 -25.81490013 3.16929516 -35.9375 -0.75390625 C-26.29330875 -6.24569934 -10.04854868 -3.42456435 0 0 Z " fill="#FB2B3A" transform="translate(89.9375,12.75390625)"/>
<path d="M0 0 C1.16789062 0.85851562 1.16789062 0.85851562 2.359375 1.734375 C14.30115885 11.37015921 21.28107499 25.85544647 23.58984375 40.82421875 C25.20121106 58.44062762 20.95552053 74.07684412 10 88 C9.56300781 88.61230469 9.12601562 89.22460938 8.67578125 89.85546875 C-0.168778 101.46229275 -14.94868679 107.98628524 -28.9375 110.375 C-36.59577872 111.28506451 -46.3626684 112.42488773 -53 108 C-52.21238281 107.74347656 -51.42476562 107.48695313 -50.61328125 107.22265625 C-32.18409439 100.74517874 -20.25260075 89.36424551 -11.78369141 71.82519531 C-6.12992033 58.65772099 -6.00302489 41.31408804 -11 28 C-17.73508332 12.38570572 -27.77768483 0.36684993 -43.65625 -6.60546875 C-46.75205261 -7.80677476 -49.85206127 -8.94391733 -53 -10 C-38.07969329 -19.94687114 -12.70917087 -9.51189518 0 0 Z " fill="#FB2B3A" transform="translate(294,207)"/>
<path d="M0 0 C3.93016813 2.67630244 7.1073825 6.18038635 10.4375 9.5625 C11.37271484 10.45775391 12.30792969 11.35300781 13.27148438 12.27539062 C14.14998047 13.15517578 15.02847656 14.03496094 15.93359375 14.94140625 C16.73853271 15.74263916 17.54347168 16.54387207 18.37280273 17.36938477 C20 20 20 20 20.10424805 23.44262695 C18.77294953 27.7314509 16.63231822 30.0382197 13.3984375 32.9765625 C12.84257965 33.50970062 12.2867218 34.04283875 11.71401978 34.59213257 C9.94815101 36.28505026 8.16440867 37.95700517 6.375 39.625 C4.01147592 41.82910008 1.66844745 44.05221917 -0.6640625 46.2890625 C-1.21293121 46.78814117 -1.76179993 47.28721985 -2.32730103 47.80142212 C-4.59208579 49.97595851 -5.94855976 51.29953722 -6.18359375 54.5 C-4.56115633 57.92693052 -2.15058498 60.18985258 0.6015625 62.7109375 C1.74272125 63.80152511 2.88332974 64.89268873 4.0234375 65.984375 C5.82466763 67.68624727 7.6315748 69.3810926 9.44921875 71.06542969 C11.20520632 72.70047885 12.93534375 74.35964981 14.6640625 76.0234375 C15.21293121 76.51846771 15.76179993 77.01349792 16.32730103 77.52352905 C19.15639233 80.27574505 19.99164164 81.58652863 20.07250977 85.58691406 C18.92948593 89.22439944 17.84777143 90.91243276 15.17578125 93.5859375 C14.39396484 94.37097656 13.61214844 95.15601563 12.80664062 95.96484375 C11.98357422 96.76019531 11.16050781 97.55554688 10.3125 98.375 C9.50876953 99.19355469 8.70503906 100.01210938 7.87695312 100.85546875 C1.02690149 107.61030298 1.02690149 107.61030298 -5 108 C-7.16015625 106.7421875 -7.16015625 106.7421875 -9.0625 104.875 C-9.7328125 104.22660156 -10.403125 103.57820313 -11.09375 102.91015625 C-11.7228125 102.27980469 -12.351875 101.64945312 -13 101 C-13.81984375 100.28650391 -13.81984375 100.28650391 -14.65625 99.55859375 C-16.0625 98.3125 -16.0625 98.3125 -18 96 C-17.92545194 93.53991392 -17.14197945 92.25429156 -15.953125 90.125 C-14.22971388 86.28264078 -14.73533944 82.86672764 -16 79 C-18.13589667 75.5634503 -20.40419441 72.41830262 -22.87109375 69.2109375 C-27.02665409 62.94328502 -27.8458643 56.33439301 -27 49 C-25.56161218 42.89331158 -23.36304988 38.16731724 -19.3125 33.375 C-16.22282987 29.66075139 -14.99681003 26.90209096 -14.76953125 22.0703125 C-15.10872373 19.02332922 -16.56915723 16.67505387 -18 14 C-16.73125492 10.19376475 -13.99205763 7.59176882 -11.25 4.75 C-10.40953125 3.85796875 -9.5690625 2.9659375 -8.703125 2.046875 C-5.38517236 -0.46556313 -4.07991819 -0.50099811 0 0 Z " fill="#00C0FA" transform="translate(290,387)"/>
<path d="M0 0 C3.46936272 2.47712425 6.32971407 5.58719878 9.3125 8.625 C10.54709961 9.81802734 10.54709961 9.81802734 11.80664062 11.03515625 C12.58845703 11.82019531 13.37027344 12.60523438 14.17578125 13.4140625 C15.24179565 14.48068115 15.24179565 14.48068115 16.3293457 15.56884766 C18.59289562 18.86278746 19.08082484 21.00175593 19 25 C17.26703784 27.40895417 15.82291322 29.02947333 13.6640625 30.9765625 C13.1101181 31.50970062 12.55617371 32.04283875 11.98544312 32.59213257 C10.21657004 34.2898986 8.42335461 35.95853756 6.625 37.625 C4.83747599 39.3018265 3.05622631 40.98422877 1.28598022 42.67929077 C0.18502177 43.73145958 -0.9264605 44.77275418 -2.04940796 45.80142212 C-4.24449184 47.88265465 -5.88480469 49.75668318 -7.18359375 52.5 C-6.8981237 56.38725179 -4.39921418 58.22390219 -1.6640625 60.7109375 C-1.1101181 61.24216217 -0.55617371 61.77338684 0.01455688 62.32070923 C2.38417874 64.59232432 4.78734645 66.82721955 7.18847656 69.06542969 C8.93751095 70.70556734 10.66799834 72.36372704 12.3984375 74.0234375 C13.21566788 74.76598282 13.21566788 74.76598282 14.04940796 75.52352905 C16.72604694 78.09484291 17.99756199 79.99214586 19.10424805 83.55737305 C18.97284002 87.89691534 17.97691793 89.02928147 14.93359375 92.05859375 C14.05509766 92.93837891 13.17660156 93.81816406 12.27148438 94.72460938 C11.33626953 95.61986328 10.40105469 96.51511719 9.4375 97.4375 C8.52935547 98.35982422 7.62121094 99.28214844 6.68554688 100.23242188 C-0.08587566 106.87598894 -0.08587566 106.87598894 -4.11157227 107.42211914 C-7.18701182 106.97266981 -8.13108143 106.59351314 -10.2109375 104.375 C-10.73300781 103.83359375 -11.25507813 103.2921875 -11.79296875 102.734375 C-12.57607422 101.87585938 -12.57607422 101.87585938 -13.375 101 C-14.19291016 100.14148438 -14.19291016 100.14148438 -15.02734375 99.265625 C-16.36559012 97.85694461 -17.68474975 96.43017503 -19 95 C-18.68804687 94.26523438 -18.37609375 93.53046875 -18.0546875 92.7734375 C-15.99336252 87.35291625 -15.15496967 82.89286794 -17.5625 77.5 C-18.34922561 76.31579978 -19.16452597 75.15032626 -20 74 C-26.40831076 64.86856482 -29.58305435 57.04378576 -27.60546875 45.74609375 C-26.25644024 40.88088771 -23.96227135 37.47804319 -20.875 33.5 C-17.29867318 28.79084037 -15.20170672 25.0106788 -16 19 C-16.95394836 16.97762948 -17.94535351 14.9717304 -19 13 C-17.76526308 9.31879676 -15.22624811 6.99006511 -12.5 4.3125 C-11.7059375 3.52488281 -10.911875 2.73726562 -10.09375 1.92578125 C-6.49573751 -1.38358471 -4.69124526 -1.18832781 0 0 Z " fill="#00C0FA" transform="translate(291,18)"/>
<path d="M0 0 C2.38769531 1.77246094 2.38769531 1.77246094 4.828125 4.234375 C5.70984375 5.11867187 6.5915625 6.00296875 7.5 6.9140625 C8.86125 8.31785156 8.86125 8.31785156 10.25 9.75 C11.17296875 10.67039063 12.0959375 11.59078125 13.046875 12.5390625 C19.53550288 19.12311137 19.53550288 19.12311137 21.01855469 21.92285156 C20.97862369 26.39302214 17.43023888 29.54697707 14.51049805 32.62133789 C13.14985229 33.90899048 13.14985229 33.90899048 11.76171875 35.22265625 C10.76702178 36.18236642 9.7728972 37.14267014 8.77929688 38.10351562 C7.22714484 39.59347298 5.67083063 41.0781926 4.10424805 42.55297852 C2.58072998 43.99200173 1.07662493 45.44914883 -0.42578125 46.91015625 C-1.32723877 47.76746338 -2.22869629 48.62477051 -3.1574707 49.50805664 C-5.2253901 51.81738991 -5.2253901 51.81738991 -5.10205078 54.48632812 C-3.6236789 57.85835224 -1.60870749 59.77219185 1.05859375 62.30859375 C1.56294449 62.797798 2.06729523 63.28700226 2.58692932 63.79103088 C4.73570233 65.87468893 6.90736564 67.9338842 9.07739258 69.99536133 C10.66274658 71.50807816 12.2357473 73.03289304 13.80859375 74.55859375 C14.75532959 75.45892334 15.70206543 76.35925293 16.67749023 77.28686523 C19.14578981 80.17031033 20.17325268 82.31609691 21 86 C20.15625 87.84375 20.15625 87.84375 18.5 89.5 C17.52933594 90.49 17.52933594 90.49 16.5390625 91.5 C15.70117188 92.325 14.86328125 93.15 14 94 C12.8591349 95.20564824 11.72135504 96.41422014 10.5859375 97.625 C9.3504097 98.91805502 8.11341715 100.20971197 6.875 101.5 C5.9787793 102.45422852 5.9787793 102.45422852 5.06445312 103.42773438 C0.81382821 107.75384208 0.81382821 107.75384208 -2.53125 108.765625 C-6.36981625 107.57518357 -8.62631332 105.0980368 -11.375 102.25 C-11.93316406 101.71117187 -12.49132812 101.17234375 -13.06640625 100.6171875 C-14.6484375 99.015625 -14.6484375 99.015625 -17 96 C-16.67638953 93.70154982 -16.03734184 92.07468369 -15 90 C-13.90190846 84.89283842 -14.29572656 81.21401974 -16.9375 76.66015625 C-18.12115598 74.94802151 -19.34604988 73.2872839 -20.62255859 71.64331055 C-26.56939768 63.97224709 -26.83968396 56.42784393 -26 47 C-24.5988703 41.50455118 -21.65395604 37.51595162 -18.25 33.0625 C-15.09080859 28.71013758 -14.26696473 25.65846986 -14.4609375 20.32421875 C-15.12131569 17.47693597 -16.395358 15.42412495 -18 13 C-15.95234008 10.81742837 -13.88896781 8.65486735 -11.8125 6.5 C-10.9452832 5.56994141 -10.9452832 5.56994141 -10.06054688 4.62109375 C-9.49013672 4.03457031 -8.91972656 3.44804687 -8.33203125 2.84375 C-7.81358643 2.29912109 -7.2951416 1.75449219 -6.76098633 1.19335938 C-4.28479122 -0.48467219 -2.93811753 -0.50116436 0 0 Z " fill="#00C0FA" transform="translate(102,202)"/>
</svg>
